<?xml version="1.0" encoding="utf-8"?>
<!-- Generator: Adobe Illustrator 26.5.3, SVG Export Plug-In . SVG Version: 6.00 Build 0)  -->
<svg version="1.1" xmlns="http://www.w3.org/2000/svg" xmlns:xlink="http://www.w3.org/1999/xlink" x="0px" y="0px"
	 viewBox="0 0 2384 1684" style="enable-background:new 0 0 2384 1684;" xml:space="preserve">
<style type="text/css">
	.st0{clip-path:url(#SVGID_00000068668751861776173600000006358926914806944957_);}
	.st1{clip-path:url(#SVGID_00000118379945548264729240000002071014844888818570_);}
	.st2{fill-rule:evenodd;clip-rule:evenodd;fill:#FFFFFF;}
	.st3{fill:none;stroke:#000000;stroke-width:0.288;stroke-linecap:round;stroke-linejoin:round;stroke-miterlimit:10;}
	.st4{fill:none;stroke:#808080;stroke-width:0.432;stroke-linecap:round;stroke-linejoin:round;stroke-miterlimit:10;}
	.st5{fill-rule:evenodd;clip-rule:evenodd;fill:#939598;}
	.st6{fill:none;stroke:#000000;stroke-width:0.72;stroke-linecap:round;stroke-linejoin:round;stroke-miterlimit:10;}
	.st7{fill:none;stroke:#000000;stroke-width:0.144;stroke-linecap:round;stroke-linejoin:round;stroke-miterlimit:10;}
	.st8{fill:none;stroke:#808080;stroke-width:0.72;stroke-linecap:round;stroke-linejoin:round;stroke-miterlimit:10;}
	.st9{fill-rule:evenodd;clip-rule:evenodd;fill:#808080;}
	
		.st10{fill:none;stroke:#FF00FF;stroke-width:0.288;stroke-linecap:round;stroke-linejoin:round;stroke-miterlimit:10;stroke-dasharray:0.3542,0.1771,7.200000e-03,0.1699;}
	
		.st11{fill:none;stroke:#808080;stroke-width:0.72;stroke-linecap:round;stroke-linejoin:round;stroke-miterlimit:10;stroke-dasharray:0.3542,0.1771,7.200000e-03,0.1699;}
	.st12{fill:#FFFFFF;}
	.st13{font-family:'NeutraText-Bold';}
	.st14{font-size:55.9267px;}
	.st15{clip-path:url(#SVGID_00000145046670628608342780000016954303921406217861_);}
	.st16{fill:#231F20;}
	.st17{font-family:'NeutraText-Book';}
	.st18{font-size:37.2844px;}
	.st19{letter-spacing:2;}
	.st20{fill:#99724C;}
	.st21{font-size:44.7411px;}
	.st22{letter-spacing:-1;}
	.st23{letter-spacing:3;}
	.st24{font-family:'Arial-BoldMT';}
	.st25{font-family:'ArialMT';}
	.st26{font-size:26.0991px;}
	.st27{fill-rule:evenodd;clip-rule:evenodd;fill:none;}
	.st28{font-size:29.8275px;}
	.st29{letter-spacing:1;}
	.st30{font-size:33.556px;}
	.st31{display:none;}
	.st32{display:inline;fill:#FFFFFF;}
	.st33{display:inline;}
	
		.st34{display:inline;fill:none;stroke:#99724C;stroke-width:2.016;stroke-linecap:round;stroke-linejoin:round;stroke-miterlimit:10;}
	.st35{display:inline;stroke:#000000;stroke-miterlimit:10;}
	.st36{font-size:44.7413px;}
	.st37{display:inline;fill-rule:evenodd;clip-rule:evenodd;fill:#99724C;}
	.st38{font-size:29px;}
	.st39{fill:none;stroke:#99724C;stroke-width:2.016;stroke-linecap:round;stroke-linejoin:round;stroke-miterlimit:10;}
	.st40{fill-rule:evenodd;clip-rule:evenodd;fill:#99724C;}
	.st41{display:inline;fill:#231F20;}
</style>
<g id="Siteplan">
	<g>
		<defs>
			<rect id="SVGID_1_" width="2384" height="1684"/>
		</defs>
		<clipPath id="SVGID_00000087413001623145835680000001188233440655942565_">
			<use xlink:href="#SVGID_1_"  style="overflow:visible;"/>
		</clipPath>
		<g style="clip-path:url(#SVGID_00000087413001623145835680000001188233440655942565_);">
			<defs>
				<rect id="SVGID_00000082348549393463277780000009256257166685086649_" width="2383.92" height="1683.84"/>
			</defs>
			<clipPath id="SVGID_00000170262394629622704250000012855379683865988781_">
				<use xlink:href="#SVGID_00000082348549393463277780000009256257166685086649_"  style="overflow:visible;"/>
			</clipPath>
			<g style="clip-path:url(#SVGID_00000170262394629622704250000012855379683865988781_);">
				<polyline class="st2" points="672.5,549.78 1302.66,549.78 1302.66,547.1 1302.66,503.3 1299.93,503.3 1227.25,503.3 
					1240.47,535.95 1214.55,535.95 1214.55,503.3 1170.56,503.3 1183.78,535.95 1157.86,535.95 1157.86,503.3 1113.87,503.3 
					1127.08,535.95 1101.17,535.95 1101.17,503.3 1057.17,503.3 1070.39,535.95 1044.48,535.95 1044.48,503.3 1000.48,503.3 
					1013.7,535.95 987.78,535.95 987.78,503.3 944.87,503.3 957.03,535.95 903,535.95 915.16,503.3 859.83,503.3 871.99,535.95 
					817.96,535.95 830.12,503.3 774.79,503.3 786.95,535.95 732.92,535.95 745.08,503.3 689.75,503.3 701.91,535.95 647.88,535.95 
					660.04,503.3 603.52,503.3 603.52,695.37 667.81,695.37 667.81,692.09 665.65,692.09 665.65,693.22 664.52,693.22 664.52,563.6 
					672.5,563.6 672.5,549.78 				"/>
				<polygon class="st3" points="672.5,549.78 1302.66,549.78 1302.66,547.1 1302.66,503.3 1299.93,503.3 1227.25,503.3 
					1240.47,535.95 1214.55,535.95 1214.55,503.3 1170.56,503.3 1183.78,535.95 1157.86,535.95 1157.86,503.3 1113.87,503.3 
					1127.08,535.95 1101.17,535.95 1101.17,503.3 1057.17,503.3 1070.39,535.95 1044.48,535.95 1044.48,503.3 1000.48,503.3 
					1013.7,535.95 987.78,535.95 987.78,503.3 944.87,503.3 957.03,535.95 903,535.95 915.16,503.3 859.83,503.3 871.99,535.95 
					817.96,535.95 830.12,503.3 774.79,503.3 786.95,535.95 732.92,535.95 745.08,503.3 689.75,503.3 701.91,535.95 647.88,535.95 
					660.04,503.3 603.52,503.3 603.52,695.37 667.81,695.37 667.81,692.09 665.65,692.09 665.65,693.22 664.52,693.22 664.52,563.6 
					672.5,563.6 				"/>
				<line class="st3" x1="478.4" y1="280.83" x2="478.4" y2="249.65"/>
				<path class="st2" d="M208.09,195.57L208.09,195.57c1.74-3.06,2.52-6.57,2.26-10.08l-0.18-2.02
					c-0.83-9.55-6.43-18.04-14.89-22.55l-590.97-315.45l-136.39,36.48L-873.59,16.09"/>
				<path class="st4" d="M208.09,195.57L208.09,195.57c1.74-3.06,2.52-6.57,2.26-10.08l-0.18-2.02
					c-0.83-9.55-6.43-18.04-14.89-22.55l-590.97-315.45l-136.39,36.48L-873.59,16.09"/>
				<polyline class="st5" points="1313.82,886.94 1313.82,949.3 776.66,949.3 776.66,914.12 783.72,914.12 779.55,639.3 
					1233.94,639.3 1233.94,637.89 1261.61,637.89 1261.61,886.94 1313.82,886.94 				"/>
				<polygon class="st3" points="1313.82,886.94 1313.82,949.3 776.66,949.3 776.66,914.12 783.72,914.12 779.55,639.3 
					1233.94,639.3 1233.94,637.89 1261.61,637.89 1261.61,886.94 				"/>
				<polyline class="st2" points="478.4,249.65 492.57,249.65 575.36,249.65 575.36,280.83 478.4,280.83 478.4,249.65 				"/>
				<polygon class="st3" points="478.4,249.65 492.57,249.65 575.36,249.65 575.36,280.83 478.4,280.83 				"/>
				<polyline class="st2" points="478.4,249.65 478.4,280.83 492.57,280.83 492.57,249.65 478.4,249.65 				"/>
				<rect x="478.4" y="249.65" class="st3" width="14.17" height="31.18"/>
				<polyline class="st2" points="575.36,249.65 467.06,249.65 467.06,280.83 575.36,280.83 575.36,249.65 				"/>
				<rect x="467.06" y="249.65" class="st3" width="108.3" height="31.18"/>
				<polyline class="st5" points="589.36,199.33 575.36,199.33 575.36,244.53 589.36,244.53 589.36,199.33 				"/>
				<rect x="575.36" y="199.33" class="st3" width="14" height="45.2"/>
				<line class="st6" x1="957.55" y1="1075.47" x2="957.55" y2="1112.32"/>
				<rect x="957.55" y="1075.47" class="st6" width="34.02" height="36.85"/>
				<line class="st7" x1="1261.61" y1="886.94" x2="1308.15" y2="886.94"/>
				<line class="st7" x1="1261.61" y1="869.93" x2="1261.61" y2="886.94"/>
				<rect x="467.06" y="249.65" class="st6" width="108.3" height="31.18"/>
				<polyline class="st2" points="654.44,1183.31 313.57,1412.62 252.1,1461.64 -27.96,1641.7 -66.99,1547.14 306.6,1321.57 
					224.58,1141.39 250.12,1125.25 114.87,817.86 -39.88,890.71 -49.3,870.71 -45.72,869.03 				"/>
				<polyline class="st4" points="654.44,1183.31 313.57,1412.62 252.1,1461.64 -27.96,1641.7 -66.99,1547.14 306.6,1321.57 
					224.58,1141.39 250.12,1125.25 114.87,817.86 -39.88,890.71 -49.3,870.71 -45.72,869.03 				"/>
				<line class="st4" x1="855.63" y1="1141.05" x2="654.32" y2="1183.02"/>
				<polyline class="st2" points="1177.28,1571.73 1106.29,1524.4 933.68,1468.72 923.94,1467.33 819.54,1495.17 729.06,1510.48 
					623.27,1539.71 598.21,1557.81 605.17,1692.83 573.16,1751.29 594.04,1790.27 705.4,1755.47 812.58,1755.47 910.02,1740.16 
					981.01,1740.16 1061.74,1740.16 1163.36,1692.83 1177.28,1624.62 1177.28,1571.73 				"/>
				<polyline class="st2" points="1745.35,467.43 1498.86,467.43 1498.86,502.37 1737.98,502.37 1737.98,483.85 1745.35,483.85 
					1745.35,467.43 				"/>
				<path class="st4" d="M165.6,177.21L165.6,177.21c76.71,35.85,158.69,59.12,242.8,68.92"/>
				<line class="st4" x1="622.71" y1="1189.62" x2="622.85" y2="1188.14"/>
				<line class="st4" x1="575.36" y1="147.6" x2="1772.44" y2="147.6"/>
				<line class="st8" x1="344.82" y1="335.73" x2="360.67" y2="269.57"/>
				<line class="st8" x1="233.44" y1="309.04" x2="344.82" y2="335.73"/>
				<line class="st8" x1="249.3" y1="242.88" x2="233.44" y2="309.04"/>
				<line class="st8" x1="360.67" y1="269.57" x2="249.3" y2="242.88"/>
				<line class="st8" x1="-45.72" y1="869.03" x2="262.73" y2="725.62"/>
				<line class="st8" x1="226.88" y1="648.51" x2="-81.57" y2="791.91"/>
				<line class="st8" x1="262.73" y1="725.62" x2="226.88" y2="648.51"/>
				<line class="st8" x1="469.22" y1="1078.73" x2="565.69" y2="1032.31"/>
				<line class="st8" x1="443.09" y1="1021.85" x2="469.22" y2="1078.73"/>
				<line class="st8" x1="398.61" y1="1042.52" x2="443.09" y2="1021.85"/>
				<line class="st8" x1="358.77" y1="882.86" x2="407.76" y2="988.25"/>
				<line class="st8" x1="456.45" y1="837.45" x2="358.77" y2="882.86"/>
				<line class="st8" x1="499.47" y1="929.99" x2="456.45" y2="837.45"/>
				<line class="st8" x1="514.35" y1="921.77" x2="499.47" y2="929.99"/>
				<line class="st8" x1="565.69" y1="1032.31" x2="514.35" y2="921.77"/>
				<polyline class="st9" points="165.6,177.21 140.1,229.87 169.3,244.02 194.8,191.35 165.6,177.21 				"/>
				
					<rect x="138.19" y="194.39" transform="matrix(0.4358 -0.9 0.9 0.4358 -95.0899 269.5294)" class="st8" width="58.51" height="32.45"/>
				<polyline class="st9" points="-81.57,791.91 -45.72,869.03 262.73,725.62 226.88,648.51 -81.57,791.91 				"/>
				
					<rect x="-79.5" y="716.25" transform="matrix(0.9068 -0.4216 0.4216 0.9068 -311.4409 108.911)" class="st8" width="340.16" height="85.04"/>
				<polyline class="st2" points="249.3,242.88 233.44,309.04 344.82,335.73 360.67,269.57 249.3,242.88 				"/>
				
					<rect x="263.04" y="232.04" transform="matrix(0.233 -0.9725 0.9725 0.233 -53.5092 510.7643)" class="st4" width="68.03" height="114.53"/>
				<polyline class="st9" points="407.76,988.25 379.49,1001.4 398.61,1042.52 443.09,1021.85 469.22,1078.73 565.69,1032.31 
					514.35,921.77 499.47,929.99 456.45,837.45 358.77,882.86 407.76,988.25 				"/>
				<polygon class="st8" points="407.76,988.25 379.49,1001.4 398.61,1042.52 443.09,1021.85 469.22,1078.73 565.69,1032.31 
					514.35,921.77 499.47,929.99 456.45,837.45 358.77,882.86 				"/>
				<line class="st6" x1="589.36" y1="224.15" x2="575.36" y2="224.15"/>
				<line class="st6" x1="589.36" y1="199.33" x2="575.36" y2="199.33"/>
				<line class="st6" x1="589.36" y1="244.53" x2="589.36" y2="199.33"/>
				<line class="st6" x1="575.36" y1="244.53" x2="589.36" y2="244.53"/>
				<line class="st6" x1="1390.02" y1="586.69" x2="1349.54" y2="503.3"/>
				<line class="st6" x1="1349.54" y1="586.69" x2="1390.02" y2="503.3"/>
				<line class="st6" x1="1748.75" y1="429.99" x2="1412.07" y2="463.16"/>
				<line class="st6" x1="1748.75" y1="463.16" x2="1412.07" y2="429.99"/>
				<line class="st3" x1="467.06" y1="249.65" x2="575.36" y2="249.65"/>
				<line class="st6" x1="467.06" y1="280.83" x2="467.06" y2="249.65"/>
				<line class="st3" x1="575.36" y1="280.83" x2="467.06" y2="280.83"/>
				<line class="st6" x1="575.36" y1="199.33" x2="575.36" y2="280.83"/>
				<path class="st6" d="M1642.01,845.37L1642.01,845.37c66.18-18.54,112.34-79.2,112.56-147.93"/>
				<path class="st6" d="M1683.55,996.92L1683.55,996.92c134.27-37.16,227.99-160.17,228.19-299.48"/>
				<line class="st6" x1="957.55" y1="1112.32" x2="991.56" y2="1112.32"/>
				<line class="st6" x1="717.55" y1="780.68" x2="697.71" y2="780.68"/>
				<line class="st6" x1="717.55" y1="709.82" x2="717.55" y2="780.68"/>
				<line class="st6" x1="641.02" y1="709.82" x2="717.55" y2="709.82"/>
				<line class="st6" x1="1921.84" y1="620.06" x2="1921.84" y2="529.92"/>
				<line class="st6" x1="2058.58" y1="620.06" x2="1921.84" y2="620.06"/>
				<line class="st6" x1="689.75" y1="503.3" x2="701.91" y2="535.95"/>
				<line class="st6" x1="647.88" y1="535.95" x2="660.04" y2="503.3"/>
				<line class="st6" x1="701.91" y1="535.95" x2="647.88" y2="535.95"/>
				<line class="st6" x1="774.79" y1="503.3" x2="786.95" y2="535.95"/>
				<line class="st6" x1="732.92" y1="535.95" x2="745.08" y2="503.3"/>
				<line class="st6" x1="786.95" y1="535.95" x2="732.92" y2="535.95"/>
				<line class="st6" x1="859.83" y1="503.3" x2="871.99" y2="535.95"/>
				<line class="st6" x1="817.96" y1="535.95" x2="830.12" y2="503.3"/>
				<line class="st6" x1="871.99" y1="535.95" x2="817.96" y2="535.95"/>
				<line class="st6" x1="903" y1="535.95" x2="915.16" y2="503.3"/>
				<line class="st6" x1="957.03" y1="535.95" x2="903" y2="535.95"/>
				<line class="st6" x1="944.87" y1="503.3" x2="957.03" y2="535.95"/>
				<line class="st6" x1="987.78" y1="535.95" x2="987.78" y2="503.3"/>
				<line class="st6" x1="1013.7" y1="535.95" x2="987.78" y2="535.95"/>
				<line class="st6" x1="1000.48" y1="503.3" x2="1013.7" y2="535.95"/>
				<line class="st6" x1="1044.48" y1="535.95" x2="1044.48" y2="503.3"/>
				<line class="st6" x1="1070.39" y1="535.95" x2="1044.48" y2="535.95"/>
				<line class="st6" x1="1057.17" y1="503.3" x2="1070.39" y2="535.95"/>
				<line class="st6" x1="1101.17" y1="535.95" x2="1101.17" y2="503.3"/>
				<line class="st6" x1="1127.08" y1="535.95" x2="1101.17" y2="535.95"/>
				<line class="st6" x1="1113.87" y1="503.3" x2="1127.08" y2="535.95"/>
				<line class="st6" x1="1157.86" y1="535.95" x2="1157.86" y2="503.3"/>
				<line class="st6" x1="1183.78" y1="535.95" x2="1157.86" y2="535.95"/>
				<line class="st6" x1="1170.56" y1="503.3" x2="1183.78" y2="535.95"/>
				<line class="st6" x1="1214.55" y1="535.95" x2="1214.55" y2="503.3"/>
				<line class="st6" x1="1240.47" y1="535.95" x2="1214.55" y2="535.95"/>
				<line class="st6" x1="1227.25" y1="503.3" x2="1240.47" y2="535.95"/>
				<line class="st6" x1="1741.38" y1="405.33" x2="1741.38" y2="363.1"/>
				<line class="st6" x1="1747.9" y1="558.12" x2="1747.9" y2="529.92"/>
				<line class="st6" x1="1970.56" y1="686.95" x2="1970.56" y2="697.44"/>
				<line class="st6" x1="2058.58" y1="569.03" x2="2058.58" y2="620.06"/>
				<line class="st6" x1="1997.35" y1="363.1" x2="2058.58" y2="363.1"/>
				<line class="st6" x1="1969.71" y1="686.95" x2="1970.56" y2="686.95"/>
				<line class="st6" x1="1969.71" y1="686.1" x2="1969.71" y2="686.95"/>
				<line class="st6" x1="1966.73" y1="686.1" x2="1969.71" y2="686.1"/>
				<line class="st6" x1="1966.73" y1="631.76" x2="1966.73" y2="686.1"/>
				<line class="st6" x1="1969.71" y1="631.76" x2="1966.73" y2="631.76"/>
				<line class="st6" x1="1969.71" y1="630.91" x2="1969.71" y2="631.76"/>
				<line class="st6" x1="1970.56" y1="630.91" x2="1969.71" y2="630.91"/>
				<line class="st6" x1="1749.03" y1="670.23" x2="1747.9" y2="670.23"/>
				<line class="st6" x1="1749.03" y1="669.1" x2="1749.03" y2="670.23"/>
				<line class="st6" x1="1751.58" y1="669.1" x2="1749.03" y2="669.1"/>
				<line class="st6" x1="1751.58" y1="559.25" x2="1751.58" y2="669.1"/>
				<line class="st6" x1="1749.03" y1="559.25" x2="1751.58" y2="559.25"/>
				<line class="st6" x1="1749.03" y1="558.12" x2="1749.03" y2="559.25"/>
				<line class="st6" x1="1747.9" y1="558.12" x2="1749.03" y2="558.12"/>
				<line class="st6" x1="2056.87" y1="569.03" x2="2058.58" y2="569.03"/>
				<line class="st6" x1="2056.87" y1="567.9" x2="2056.87" y2="569.03"/>
				<line class="st6" x1="2053.47" y1="567.9" x2="2056.87" y2="567.9"/>
				<line class="st6" x1="2053.47" y1="414.97" x2="2053.47" y2="567.9"/>
				<line class="st6" x1="2056.87" y1="414.97" x2="2053.47" y2="414.97"/>
				<line class="st6" x1="2056.87" y1="413.84" x2="2056.87" y2="414.97"/>
				<line class="st6" x1="2058.58" y1="413.84" x2="2056.87" y2="413.84"/>
				<line class="st6" x1="1802.61" y1="366.21" x2="1802.61" y2="363.1"/>
				<line class="st6" x1="1803.88" y1="366.21" x2="1802.61" y2="366.21"/>
				<line class="st6" x1="1803.88" y1="368.77" x2="1803.88" y2="366.21"/>
				<line class="st6" x1="1996.07" y1="368.77" x2="1803.88" y2="368.77"/>
				<line class="st6" x1="1996.07" y1="366.21" x2="1996.07" y2="368.77"/>
				<line class="st6" x1="1997.35" y1="366.21" x2="1996.07" y2="366.21"/>
				<line class="st6" x1="1997.35" y1="363.1" x2="1997.35" y2="366.21"/>
				<line class="st6" x1="1748.75" y1="406.47" x2="1748.75" y2="487.25"/>
				<line class="st6" x1="1748.75" y1="463.16" x2="1412.07" y2="463.16"/>
				<line class="st6" x1="1748.75" y1="429.99" x2="1412.07" y2="429.99"/>
				<line class="st6" x1="1746.2" y1="406.47" x2="1748.75" y2="406.47"/>
				<line class="st6" x1="1746.2" y1="405.33" x2="1746.2" y2="406.47"/>
				<line class="st6" x1="1741.38" y1="405.33" x2="1746.2" y2="405.33"/>
				<line class="st6" x1="1748.75" y1="487.25" x2="1741.38" y2="487.25"/>
				<line class="st6" x1="1741.38" y1="363.1" x2="1802.61" y2="363.1"/>
				<line class="st6" x1="1741.38" y1="529.92" x2="1741.38" y2="487.25"/>
				<line class="st6" x1="1921.84" y1="529.92" x2="1741.38" y2="529.92"/>
				<line class="st6" x1="1747.9" y1="697.44" x2="1747.9" y2="670.23"/>
				<line class="st6" x1="1970.56" y1="697.44" x2="1747.9" y2="697.44"/>
				<line class="st6" x1="1636.57" y1="825.57" x2="1683.55" y2="996.92"/>
				<line class="st6" x1="1519.43" y1="825.57" x2="1636.57" y2="825.57"/>
				<line class="st6" x1="1519.43" y1="1028.24" x2="1519.43" y2="825.57"/>
				<line class="st6" x1="1683.55" y1="1028.24" x2="1519.43" y2="1028.24"/>
				<line class="st6" x1="1683.55" y1="996.92" x2="1683.55" y2="1028.24"/>
				<line class="st6" x1="1970.56" y1="620.06" x2="1970.56" y2="630.91"/>
				<line class="st6" x1="2058.58" y1="363.1" x2="2058.58" y2="413.84"/>
				<line class="st6" x1="1302.66" y1="503.3" x2="1302.66" y2="549.79"/>
				<line class="st6" x1="1299.93" y1="503.3" x2="1299.93" y2="391.78"/>
				<line class="st6" x1="1412.07" y1="391.78" x2="1412.07" y2="503.3"/>
				<line class="st6" x1="1299.93" y1="391.78" x2="1412.07" y2="391.78"/>
				<line class="st6" x1="559.3" y1="503.3" x2="1412.07" y2="503.3"/>
				<line class="st6" x1="559.3" y1="396.2" x2="559.3" y2="503.3"/>
				<line class="st6" x1="1299.93" y1="396.2" x2="559.3" y2="396.2"/>
				<line class="st6" x1="665.65" y1="693.22" x2="664.52" y2="693.22"/>
				<line class="st6" x1="665.65" y1="692.09" x2="665.65" y2="693.22"/>
				<line class="st6" x1="667.81" y1="692.09" x2="665.65" y2="692.09"/>
				<line class="st6" x1="667.81" y1="695.37" x2="667.81" y2="692.09"/>
				<line class="st6" x1="603.52" y1="695.37" x2="667.81" y2="695.37"/>
				<line class="st6" x1="603.52" y1="503.3" x2="603.52" y2="695.37"/>
				<line class="st6" x1="672.5" y1="549.79" x2="1302.66" y2="549.79"/>
				<line class="st6" x1="664.52" y1="693.22" x2="664.52" y2="563.6"/>
				<line class="st6" x1="1390.02" y1="586.69" x2="1390.02" y2="503.3"/>
				<line class="st6" x1="1349.54" y1="586.69" x2="1349.54" y2="503.3"/>
				<line class="st6" x1="1313.82" y1="586.69" x2="1313.82" y2="959.51"/>
				<line class="st6" x1="1413.04" y1="586.69" x2="1313.82" y2="586.69"/>
				<line class="st6" x1="1413.04" y1="611.47" x2="1413.04" y2="586.69"/>
				<line class="st6" x1="1414.51" y1="611.47" x2="1413.04" y2="611.47"/>
				<line class="st6" x1="1414.51" y1="878.04" x2="1414.51" y2="611.47"/>
				<line class="st6" x1="1413.04" y1="878.04" x2="1414.51" y2="878.04"/>
				<line class="st6" x1="1413.04" y1="959.51" x2="1413.04" y2="878.04"/>
				<line class="st6" x1="1170.05" y1="641.46" x2="1170.05" y2="914.15"/>
				<line class="st6" x1="1113.36" y1="641.46" x2="1113.36" y2="914.15"/>
				<line class="st6" x1="1056.66" y1="641.46" x2="1056.66" y2="914.15"/>
				<line class="st6" x1="999.97" y1="641.46" x2="999.97" y2="914.15"/>
				<line class="st6" x1="943.28" y1="641.46" x2="943.28" y2="914.15"/>
				<line class="st6" x1="886.58" y1="641.46" x2="886.58" y2="890.85"/>
				<line class="st6" x1="829.89" y1="641.46" x2="829.89" y2="890.85"/>
				<line class="st6" x1="954.59" y1="950.72" x2="954.59" y2="949.3"/>
				<line class="st6" x1="878.85" y1="950.72" x2="954.59" y2="950.72"/>
				<line class="st6" x1="878.85" y1="949.3" x2="878.85" y2="950.72"/>
				<line class="st6" x1="878.85" y1="949.3" x2="776.66" y2="949.3"/>
				<line class="st6" x1="1233.94" y1="650.73" x2="1233.94" y2="637.89"/>
				<line class="st6" x1="1226.74" y1="650.73" x2="1233.94" y2="650.73"/>
				<line class="st6" x1="1226.74" y1="650.73" x2="1226.74" y2="914.15"/>
				<line class="st6" x1="1174.13" y1="641.46" x2="1174.13" y2="914.15"/>
				<line class="st6" x1="1117.44" y1="641.46" x2="1117.44" y2="914.15"/>
				<line class="st6" x1="1060.74" y1="641.46" x2="1060.74" y2="914.15"/>
				<line class="st6" x1="1004.05" y1="641.46" x2="1004.05" y2="914.15"/>
				<line class="st6" x1="947.36" y1="641.46" x2="947.36" y2="914.15"/>
				<line class="st6" x1="833.97" y1="641.46" x2="833.97" y2="890.85"/>
				<line class="st6" x1="890.67" y1="890.85" x2="779.55" y2="890.85"/>
				<line class="st6" x1="890.67" y1="914.15" x2="890.67" y2="641.46"/>
				<line class="st6" x1="1226.74" y1="914.15" x2="890.67" y2="914.15"/>
				<line class="st6" x1="1261.61" y1="886.94" x2="1313.82" y2="886.94"/>
				<line class="st6" x1="1261.61" y1="637.89" x2="1261.61" y2="886.94"/>
				<line class="st6" x1="1233.94" y1="637.89" x2="1261.61" y2="637.89"/>
				<line class="st6" x1="779.55" y1="914.15" x2="779.55" y2="639.3"/>
				<line class="st6" x1="776.66" y1="914.15" x2="779.55" y2="914.15"/>
				<line class="st6" x1="776.66" y1="949.3" x2="776.66" y2="914.15"/>
				<line class="st6" x1="1313.82" y1="949.3" x2="954.59" y2="949.3"/>
				<polygon class="st6" points="1101.17,535.95 1127.08,535.95 1113.87,503.3 1101.17,503.3 				"/>
				<polygon class="st6" points="1157.86,535.95 1183.78,535.95 1170.56,503.3 1157.86,503.3 				"/>
				<polygon class="st6" points="1240.47,535.95 1227.25,503.3 1214.55,503.3 1214.55,535.95 				"/>
				<polygon class="st6" points="1070.39,535.95 1057.17,503.3 1044.48,503.3 1044.48,535.95 				"/>
				<polygon class="st6" points="987.78,535.95 1013.7,535.95 1000.48,503.3 987.78,503.3 				"/>
				<polygon class="st6" points="944.87,503.3 915.16,503.3 903,535.95 957.03,535.95 				"/>
				<polygon class="st6" points="871.99,535.95 859.83,503.3 830.12,503.3 817.96,535.95 				"/>
				<polygon class="st6" points="745.08,503.3 732.92,535.95 786.95,535.95 774.79,503.3 				"/>
				<polygon class="st6" points="647.88,535.95 701.91,535.95 689.75,503.3 660.04,503.3 				"/>
				<polygon class="st6" points="1389.85,503.3 1349.54,503.3 1349.54,586.69 1390.02,586.69 1390.02,503.3 				"/>
				<polyline class="st2" points="589.36,199.33 575.36,199.33 575.36,244.53 589.36,244.53 589.36,199.33 				"/>
				<rect x="575.36" y="199.33" class="st6" width="14" height="45.2"/>
				<polyline class="st4" points="3045.34,1589.44 2509.06,1367.02 2428.92,1343.67 2221.31,1297.1 1709.01,1177.43 
					1566.48,1163.98 857.43,1149.67 855.63,1141.05 				"/>
				<polygon class="st6" points="1299.93,503.3 1299.93,443.89 1299.93,396.2 559.3,396.2 559.3,503.3 				"/>
				<polyline class="st2" points="933.68,1468.72 1106.29,1524.4 1177.28,1571.73 1177.28,1624.63 1163.36,1692.83 1061.74,1740.16 
					910.02,1740.16 812.58,1755.47 705.4,1755.47 594.04,1790.27 573.16,1751.29 605.17,1692.83 598.21,1557.81 623.27,1539.71 
					729.06,1510.48 819.54,1495.17 923.94,1467.33 933.68,1468.72 				"/>
				<polygon class="st4" points="933.68,1468.72 1106.29,1524.4 1177.28,1571.73 1177.28,1624.63 1163.36,1692.83 1061.74,1740.16 
					910.02,1740.16 812.58,1755.47 705.4,1755.47 594.04,1790.27 573.16,1751.29 605.17,1692.83 598.21,1557.81 623.27,1539.71 
					729.06,1510.48 819.54,1495.17 923.94,1467.33 				"/>
				<polygon class="st6" points="1741.38,529.92 1747.9,529.92 1921.84,529.92 1921.84,620.06 2058.58,620.06 2058.58,569.03 
					2056.87,569.03 2056.87,567.9 2053.47,567.9 2053.47,414.97 2056.87,414.97 2056.87,413.84 2058.58,413.84 2058.58,363.1 
					1997.35,363.1 1997.35,366.21 1996.07,366.21 1996.07,368.77 1803.88,368.77 1803.88,366.21 1802.61,366.21 1802.61,363.1 
					1741.38,363.1 1741.38,405.33 1746.2,405.33 1746.2,406.47 1748.75,406.47 1748.75,428.01 1748.75,487.25 1741.38,487.25 				
					"/>
				<path class="st6" d="M1642.01,845.37l41.55,151.55c134.67-37.27,227.99-159.74,228.19-299.48h-157.18
					C1754.34,766.38,1708.38,826.78,1642.01,845.37"/>
				<polygon class="st6" points="672.5,549.79 1302.66,549.79 1302.66,547.1 1302.66,503.3 1299.93,503.3 1227.25,503.3 
					1240.47,535.95 1214.55,535.95 1214.55,503.3 1170.56,503.3 1183.78,535.95 1157.86,535.95 1157.86,503.3 1113.87,503.3 
					1127.08,535.95 1101.17,535.95 1101.17,503.3 1057.17,503.3 1070.39,535.95 1044.48,535.95 1044.48,503.3 1000.48,503.3 
					1013.7,535.95 987.78,535.95 987.78,503.3 944.87,503.3 957.03,535.95 903,535.95 915.16,503.3 859.83,503.3 871.99,535.95 
					817.96,535.95 830.12,503.3 774.79,503.3 786.95,535.95 732.92,535.95 745.08,503.3 689.75,503.3 701.91,535.95 647.88,535.95 
					660.04,503.3 603.52,503.3 603.52,695.37 667.81,695.37 667.81,692.09 665.65,692.09 665.65,693.22 664.52,693.22 664.52,563.6 
					672.5,563.6 				"/>
				<polygon class="st6" points="954.59,949.3 1248.2,949.3 1313.82,949.3 1313.82,886.94 1261.61,886.94 1261.61,637.89 
					1233.94,637.89 1233.94,650.73 1226.74,650.73 1226.74,914.15 890.67,914.15 890.67,890.85 779.55,890.85 779.55,914.15 
					776.66,914.15 776.66,949.3 878.85,949.3 878.85,950.72 954.59,950.72 				"/>
				<polygon class="st6" points="1313.82,586.69 1313.82,959.51 1413.04,959.51 1413.04,878.04 1414.51,878.04 1414.51,669.78 
					1414.51,611.47 1413.04,611.47 1413.04,586.69 				"/>
				<polygon class="st6" points="1412.07,431.92 1412.07,463.16 1748.75,463.16 1748.75,429.99 1412.07,429.99 				"/>
				<polygon class="st6" points="1747.9,670.23 1747.9,697.44 1754.56,697.44 1911.74,697.44 1970.56,697.44 1970.56,686.95 
					1969.71,686.95 1969.71,686.1 1966.73,686.1 1966.73,631.76 1969.71,631.76 1969.71,630.91 1970.56,630.91 1970.56,620.06 
					1921.84,620.06 1921.84,529.92 1747.9,529.92 1747.9,558.12 1749.03,558.12 1749.03,559.25 1751.58,559.25 1751.58,630 
					1751.58,669.1 1749.03,669.1 1749.03,670.23 				"/>
				<polygon class="st6" points="1299.93,396.2 1299.93,503.3 1302.66,503.3 1412.07,503.3 1412.07,463.16 1412.07,429.99 
					1412.07,391.78 1299.93,391.78 				"/>
				<polygon class="st6" points="1683.55,996.92 1636.57,825.57 1519.43,825.57 1519.43,1028.24 1683.55,1028.24 				"/>
				<line class="st8" x1="622.47" y1="-21.86" x2="622.47" y2="-22.34"/>
				<polyline class="st10" points="1663.09,144.76 1663.04,145.32 1662.88,145.85 1662.62,146.34 1662.26,146.77 1661.83,147.12 
					1661.34,147.38 1660.81,147.54 1660.26,147.6 				"/>
				<line class="st4" x1="1772.44" y1="147.6" x2="2058.58" y2="147.6"/>
				<path class="st4" d="M1254.03,570.76L1254.03,570.76c2.52,0,5-0.56,7.28-1.64"/>
				<line class="st8" x1="2080.93" y1="-299.51" x2="2080.93" y2="-299.99"/>
				<line class="st11" x1="2080.93" y1="-299.99" x2="2192.21" y2="-299.99"/>
				<line class="st8" x1="2191.73" y1="-299.99" x2="2192.21" y2="-299.99"/>
				<line class="st8" x1="1663.09" y1="-430.6" x2="1663.09" y2="-431.08"/>
				<line class="st11" x1="1663.09" y1="-431.08" x2="1478.02" y2="-869.47"/>
				<line class="st8" x1="1478.18" y1="-869.1" x2="1478.02" y2="-869.47"/>
				<line class="st4" x1="407.53" y1="246.03" x2="427.37" y2="246.91"/>
				<path class="st2" d="M1642.01,845.37l41.55,151.55c134.67-37.27,227.99-159.74,228.19-299.48h-157.18
					C1754.34,766.38,1708.38,826.78,1642.01,845.37"/>
				<path class="st6" d="M1642.01,845.37l41.55,151.55c134.67-37.27,227.99-159.74,228.19-299.48h-157.18
					C1754.34,766.38,1708.38,826.78,1642.01,845.37"/>
				<polygon class="st3" points="1747.9,670.23 1747.9,697.44 1754.56,697.44 1911.74,697.44 1970.56,697.44 1970.56,686.95 
					1969.71,686.95 1969.71,686.1 1966.73,686.1 1966.73,631.76 1969.71,631.76 1969.71,630.91 1970.56,630.91 1970.56,620.06 
					1921.84,620.06 1921.84,529.92 1747.9,529.92 1747.9,558.12 1749.03,558.12 1749.03,559.25 1751.58,559.25 1751.58,630 
					1751.58,669.1 1749.03,669.1 1749.03,670.23 				"/>
				<polyline class="st2" points="1412.07,431.92 1412.07,463.16 1748.75,463.16 1748.75,429.99 1412.07,429.99 1412.07,431.92 				
					"/>
				<polygon class="st6" points="1412.07,431.92 1412.07,463.16 1748.75,463.16 1748.75,429.99 1412.07,429.99 				"/>
				<polyline class="st2" points="1389.85,503.3 1349.54,503.3 1349.54,586.69 1390.02,586.69 1390.02,503.3 1389.85,503.3 				"/>
				<polygon class="st6" points="1389.85,503.3 1349.54,503.3 1349.54,586.69 1390.02,586.69 1390.02,503.3 				"/>
				<polyline class="st2" points="407.76,988.25 379.49,1001.4 398.61,1042.52 443.09,1021.85 469.22,1078.73 565.69,1032.31 
					514.35,921.77 499.47,929.99 456.45,837.45 358.77,882.86 407.76,988.25 				"/>
				<polygon class="st6" points="407.76,988.25 379.49,1001.4 398.61,1042.52 443.09,1021.85 469.22,1078.73 565.69,1032.31 
					514.35,921.77 499.47,929.99 456.45,837.45 358.77,882.86 				"/>
				<polyline class="st2" points="-81.57,791.91 -45.72,869.03 262.73,725.62 226.88,648.51 -81.57,791.91 				"/>
				
					<rect x="-79.5" y="716.25" transform="matrix(0.9068 -0.4216 0.4216 0.9068 -311.4407 108.9109)" class="st6" width="340.16" height="85.04"/>
				<polyline class="st2" points="249.3,242.88 233.44,309.04 344.82,335.73 360.67,269.57 249.3,242.88 				"/>
				
					<rect x="263.04" y="232.04" transform="matrix(0.233 -0.9725 0.9725 0.233 -53.5095 510.7643)" class="st6" width="68.03" height="114.53"/>
				<polyline class="st2" points="165.6,177.21 140.1,229.87 169.3,244.02 194.8,191.35 165.6,177.21 				"/>
				
					<rect x="138.19" y="194.39" transform="matrix(0.4358 -0.9 0.9 0.4358 -95.09 269.5294)" class="st4" width="58.51" height="32.45"/>
				<polyline class="st2" points="779.55,890.85 779.55,639.3 1233.94,639.3 1233.94,650.73 1226.74,650.73 1226.74,914.15 
					890.67,914.15 890.67,890.85 779.55,890.85 				"/>
				<polygon class="st6" points="779.55,890.85 779.55,639.3 1233.94,639.3 1233.94,650.73 1226.74,650.73 1226.74,914.15 
					890.67,914.15 890.67,890.85 				"/>
				<polyline class="st2" points="954.59,949.3 1248.2,949.3 1313.82,949.3 1313.82,886.94 1261.61,886.94 1261.61,637.89 
					1233.94,637.89 1233.94,650.73 1226.74,650.73 1226.74,914.15 890.67,914.15 890.67,890.85 779.55,890.85 779.55,914.15 
					776.66,914.15 776.66,949.3 878.85,949.3 878.85,950.72 954.59,950.72 954.59,949.3 				"/>
				<polygon class="st6" points="954.59,949.3 1248.2,949.3 1313.82,949.3 1313.82,886.94 1261.61,886.94 1261.61,637.89 
					1233.94,637.89 1233.94,650.73 1226.74,650.73 1226.74,914.15 890.67,914.15 890.67,890.85 779.55,890.85 779.55,914.15 
					776.66,914.15 776.66,949.3 878.85,949.3 878.85,950.72 954.59,950.72 				"/>
				<polyline class="st2" points="1683.55,996.92 1636.57,825.57 1519.43,825.57 1519.43,1028.24 1683.55,1028.24 1683.55,996.92 
									"/>
				<polygon class="st6" points="1683.55,996.92 1636.57,825.57 1519.43,825.57 1519.43,1028.24 1683.55,1028.24 				"/>
				<line class="st3" x1="641.02" y1="858.59" x2="697.71" y2="858.59"/>
				<polyline class="st2" points="697.71,780.68 717.55,780.68 717.55,709.82 641.02,709.82 641.02,858.59 697.71,858.59 
					697.71,780.68 				"/>
				<polygon class="st6" points="697.71,780.68 717.55,780.68 717.55,709.82 641.02,709.82 641.02,858.59 697.71,858.59 				"/>
				<polyline class="st2" points="1313.82,586.69 1313.82,959.51 1413.04,959.51 1413.04,878.04 1414.51,878.04 1414.51,669.78 
					1414.51,611.47 1413.04,611.47 1413.04,586.69 1313.82,586.69 				"/>
				<polygon class="st6" points="1313.82,586.69 1313.82,959.51 1413.04,959.51 1413.04,878.04 1414.51,878.04 1414.51,669.78 
					1414.51,611.47 1413.04,611.47 1413.04,586.69 				"/>
				<polygon class="st3" points="1741.38,529.92 1747.9,529.92 1921.84,529.92 1921.84,620.06 2058.58,620.06 2058.58,569.03 
					2056.87,569.03 2056.87,567.9 2053.47,567.9 2053.47,414.97 2056.87,414.97 2056.87,413.84 2058.58,413.84 2058.58,363.1 
					1997.35,363.1 1997.35,366.21 1996.07,366.21 1996.07,368.77 1803.88,368.77 1803.88,366.21 1802.61,366.21 1802.61,363.1 
					1741.38,363.1 1741.38,405.33 1746.2,405.33 1746.2,406.47 1748.75,406.47 1748.75,428.01 1748.75,487.25 1741.38,487.25 				
					"/>
				<polyline class="st2" points="1299.93,396.2 1299.93,503.3 1302.66,503.3 1412.07,503.3 1412.07,463.16 1412.07,429.99 
					1412.07,391.78 1299.93,391.78 1299.93,396.2 				"/>
				<polygon class="st6" points="1299.93,396.2 1299.93,503.3 1302.66,503.3 1412.07,503.3 1412.07,463.16 1412.07,429.99 
					1412.07,391.78 1299.93,391.78 				"/>
				<polyline class="st2" points="589.36,147.6 575.36,147.6 575.36,177.3 589.36,177.3 589.36,147.6 				"/>
				<rect x="575.36" y="147.6" class="st6" width="14" height="29.71"/>
				<line class="st4" x1="589.36" y1="177.3" x2="589.36" y2="199.33"/>
				<polyline class="st2" points="1299.93,503.3 1299.93,443.89 1299.93,396.2 559.3,396.2 559.3,503.3 1299.93,503.3 				"/>
				<polygon class="st6" points="1299.93,503.3 1299.93,443.89 1299.93,396.2 559.3,396.2 559.3,503.3 				"/>
				<rect x="407.49" y="249.65" class="st2" width="19.88" height="31.18"/>
				<rect x="407.49" y="249.65" class="st6" width="19.88" height="31.18"/>
				<line class="st3" x1="427.37" y1="249.65" x2="427.37" y2="246.91"/>
			</g>
		</g>
	</g>
	<text transform="matrix(1 0 0 1 1908.3131 516.4238)" class="st12 st13 st14"> </text>
	<g>
		<defs>
			<rect id="SVGID_00000052812035612017519480000011094083150146959036_" x="187.87" y="128.29" width="1865.12" height="1168.2"/>
		</defs>
		<clipPath id="SVGID_00000159450038191229488760000016276651852696349083_">
			<use xlink:href="#SVGID_00000052812035612017519480000011094083150146959036_"  style="overflow:visible;"/>
		</clipPath>
		<g style="clip-path:url(#SVGID_00000159450038191229488760000016276651852696349083_);">
			<text transform="matrix(1 0 0 1 1151.4557 1284.1084)"><tspan x="0" y="0" class="st16 st17 st18 st19">SP</tspan><tspan x="47.54" y="0" class="st16 st17 st18 st19">R</tspan><tspan x="72.7" y="0" class="st16 st17 st18 st19">E</tspan><tspan x="97.31" y="0" class="st16 st17 st18">E</tspan></text>
		</g>
	</g>
	<text transform="matrix(0.4067 0.9135 -0.9135 0.4067 425.8127 637.8863)"><tspan x="0" y="0" class="st20 st13 st21 st22">W</tspan><tspan x="41.79" y="0" class="st20 st13 st21 st23">A</tspan><tspan x="75.07" y="0" class="st20 st13 st21 st23">L</tspan><tspan x="103.71" y="0" class="st20 st13 st21 st19">K</tspan><tspan x="135.43" y="0" class="st20 st13 st21 st22">W</tspan><tspan x="177.17" y="0" class="st20 st13 st21 st22">A</tspan><tspan x="205.13" y="0" class="st20 st13 st21">Y</tspan></text>
	<text transform="matrix(1 0 0 1 313.9489 173.7068)"><tspan x="0" y="0" class="st16 st24 st18 st19">T</tspan><tspan x="25.76" y="0" class="st16 st24 st18 st19">RAM</tspan><tspan x="119.5" y="0" class="st16 st24 st18 st19"> </tspan><tspan x="132.85" y="0" class="st16 st24 st18 st19">2</tspan><tspan x="156.53" y="0" class="st16 st24 st18">1</tspan></text>
	<text transform="matrix(1 0 0 1 313.9489 205.0271)"><tspan x="0" y="0" class="st16 st25 st26 st19">B</tspan><tspan x="19.5" y="0" class="st16 st25 st26 st19">L</tspan><tspan x="36.07" y="0" class="st16 st25 st26 st19">O</tspan><tspan x="58.46" y="0" class="st16 st25 st26 st19">C</tspan><tspan x="79.37" y="0" class="st16 st25 st26 st19">K</tspan><tspan x="98.87" y="0" class="st16 st25 st26 st19">D</tspan><tspan x="119.78" y="0" class="st16 st25 st26 st19">A</tspan><tspan x="139.27" y="0" class="st16 st25 st26 st19">MM</tspan><tspan x="186.88" y="0" class="st16 st25 st26 st19">WE</tspan><tspan x="233.1" y="0" class="st16 st25 st26">G</tspan></text>
	<rect x="1909.86" y="238.64" class="st27" width="3.18" height="0"/>
	<rect x="364.76" y="303.53" class="st12" width="302" height="89.48"/>
	<text transform="matrix(1 0 0 1 379.6696 337.7568)"><tspan x="0" y="0" class="st16 st17 st28 st29">N</tspan><tspan x="23.03" y="0" class="st16 st17 st28 st29">A</tspan><tspan x="44.38" y="0" class="st16 st17 st28 st29">L</tspan><tspan x="61.86" y="0" class="st16 st17 st28 st29">E</tspan><tspan x="80.95" y="0" class="st16 st17 st28">P</tspan><tspan x="98.37" y="0" class="st16 st17 st28 st29">A</tspan><tspan x="119.73" y="0" class="st16 st17 st28 st29">S</tspan><tspan x="136.91" y="0" class="st16 st17 st28 st29">TR</tspan><tspan x="174.79" y="0" class="st16 st17 st28 st29">.</tspan><tspan x="182.6" y="0" class="st16 st17 st28"> </tspan></text>
	<text transform="matrix(1 0 0 1 571.2496 337.7568)"><tspan x="0" y="0" class="st16 st17 st30 st19">1</tspan><tspan x="11.54" y="0" class="st16 st17 st30">8</tspan></text>
</g>
<g id="Shedhalle" class="st31">
	<rect x="364.76" y="303.53" class="st32" width="302" height="89.48"/>
	<text transform="matrix(1 0 0 1 379.6696 337.7568)" class="st33"><tspan x="0" y="0" class="st16 st17 st28 st29">N</tspan><tspan x="23.03" y="0" class="st16 st17 st28 st29">A</tspan><tspan x="44.38" y="0" class="st16 st17 st28 st29">L</tspan><tspan x="61.86" y="0" class="st16 st17 st28 st29">E</tspan><tspan x="80.95" y="0" class="st16 st17 st28">P</tspan><tspan x="98.37" y="0" class="st16 st17 st28 st29">A</tspan><tspan x="119.73" y="0" class="st16 st17 st28 st29">S</tspan><tspan x="136.91" y="0" class="st16 st17 st28 st29">TR</tspan><tspan x="174.79" y="0" class="st16 st17 st28 st29">.</tspan><tspan x="182.6" y="0" class="st16 st17 st28"> </tspan></text>
	<text transform="matrix(1 0 0 1 571.2496 337.7568)" class="st33"><tspan x="0" y="0" class="st16 st17 st30 st19">1</tspan><tspan x="11.54" y="0" class="st16 st17 st30">8</tspan></text>
	<line class="st34" x1="452.88" y1="226.95" x2="452.88" y2="303.53"/>
	<polygon class="st33" points="954.59,949.3 1248.2,949.3 1313.82,949.3 1313.82,886.94 1261.61,886.94 1261.61,637.89 
		1233.94,637.89 1233.94,650.73 1226.74,650.73 1226.74,914.15 890.67,914.15 890.67,890.85 779.55,890.85 779.55,914.15 
		776.66,914.15 776.66,949.3 878.85,949.3 878.85,950.72 954.59,950.72 	"/>
	<polygon class="st35" points="779.55,890.85 779.55,639.3 1233.94,639.3 1233.94,650.73 1226.74,650.73 1226.74,914.15 
		890.67,914.15 890.67,890.85 	"/>
	<text transform="matrix(1 0 0 1 1198.1178 984.9398)" class="st33"><tspan x="0" y="0" class="st16 st13 st30">Z</tspan><tspan x="20.77" y="0" class="st16 st13 st30 st19">OL</tspan><tspan x="71.81" y="0" class="st16 st13 st30">A </tspan></text>
	<text transform="matrix(1 0 0 1 1198.1178 1025.2064)" class="st33"><tspan x="0" y="0" class="st16 st13 st30 st19">P</tspan><tspan x="22.82" y="0" class="st16 st13 st30 st19">I</tspan><tspan x="35.13" y="0" class="st16 st13 st30 st19">Z</tspan><tspan x="57.08" y="0" class="st16 st13 st30 st19">Z</tspan><tspan x="79.22" y="0" class="st16 st13 st30">A</tspan></text>
	<text transform="matrix(1 0 0 1 889.7932 803.3751)" class="st32 st13 st36 st19">SHEDHALLE</text>
	<polyline class="st37" points="735.04,920.7 754.96,887.81 735.04,857.13 735.04,920.7 	"/>
	<path class="st34" d="M453.04,503.3c0,2.35,0.11,4.69,0.34,7.03c0.22,2.34,0.56,4.66,1,6.96c0.44,2.3,1,4.58,1.66,6.82
		c0.66,2.25,1.43,4.45,2.3,6.62"/>
	<line class="st34" x1="458.34" y1="530.74" x2="596.21" y2="867.3"/>
	<line class="st34" x1="735.04" y1="888.91" x2="629.87" y2="888.05"/>
	<path class="st34" d="M629.64,888.05c-1.7-0.01-3.39-0.14-5.07-0.38c-1.68-0.24-3.36-0.59-5.02-1.04c-1.66-0.46-3.29-1.03-4.91-1.7
		c-1.62-0.68-3.2-1.45-4.76-2.34"/>
	<path class="st34" d="M609.87,882.59c-1.42-0.93-2.77-1.95-4.06-3.06c-1.29-1.11-2.51-2.31-3.66-3.59
		c-1.15-1.28-2.22-2.64-3.21-4.09c-0.99-1.44-1.91-2.95-2.73-4.54"/>
	<line class="st34" x1="452.88" y1="348.27" x2="452.88" y2="503.3"/>
</g>
<g id="Monom">
	<rect x="1119.95" y="638.21" width="142.85" height="142.85"/>
	<rect x="1233.51" y="637.39" width="28.1" height="2.49"/>
	<text transform="matrix(1 0 0 1 1129.5898 718.4817)" class="st12 st13 st38 st29">MONOM</text>
	<line class="st39" x1="1483.86" y1="989.64" x2="1483.86" y2="572.5"/>
	<line class="st39" x1="1339.67" y1="570.51" x2="1198.92" y2="570.51"/>
	<polyline class="st40" points="1170.83,593.77 1199.06,613.68 1225.41,593.77 1170.83,593.77 	"/>
	<line class="st39" x1="1483.86" y1="570.51" x2="1397.37" y2="570.51"/>
	<line class="st39" x1="1198.92" y1="593.77" x2="1198.92" y2="570.51"/>
	<line class="st39" x1="760.15" y1="987.66" x2="1483.86" y2="987.66"/>
	<line class="st39" x1="760.15" y1="987.66" x2="730.66" y2="979.61"/>
	<rect x="1185.19" y="855.3" class="st12" width="117.76" height="86.12"/>
	<text transform="matrix(1 0 0 1 1198.1178 893.1745)"><tspan x="0" y="0" class="st16 st13 st30">Z</tspan><tspan x="20.77" y="0" class="st16 st13 st30 st19">OL</tspan><tspan x="71.81" y="0" class="st16 st13 st30">A </tspan></text>
	<text transform="matrix(1 0 0 1 1198.1178 933.4411)"><tspan x="0" y="0" class="st16 st13 st30 st19">P</tspan><tspan x="22.82" y="0" class="st16 st13 st30 st19">I</tspan><tspan x="35.13" y="0" class="st16 st13 st30 st19">Z</tspan><tspan x="57.08" y="0" class="st16 st13 st30 st19">Z</tspan><tspan x="79.22" y="0" class="st16 st13 st30">A</tspan></text>
	<path class="st39" d="M452.88,562.93c0,2.35,0.11,4.69,0.34,7.03c0.22,2.34,0.56,4.66,1,6.96c0.44,2.3,1,4.58,1.66,6.82
		c0.66,2.25,1.43,4.45,2.3,6.62"/>
	<line class="st39" x1="458.19" y1="590.37" x2="591.23" y2="900.32"/>
	<path class="st39" d="M591.23,900.32c2.29,3.97,4.82,7.77,7.58,11.39c2.76,3.62,5.74,7.05,8.92,10.26
		c3.19,3.22,6.56,6.21,10.12,8.97c3.56,2.76,7.27,5.26,11.14,7.52"/>
	<line class="st39" x1="628.99" y1="938.47" x2="710.15" y2="974.71"/>
	<polyline class="st40" points="691.22,995.98 718.54,979.33 711.1,947.15 691.22,995.98 	"/>
	<line class="st39" x1="452.88" y1="226.95" x2="452.88" y2="303.53"/>
	<line class="st39" x1="452.88" y1="348.27" x2="452.88" y2="562.93"/>
	<g>
		<text transform="matrix(1 0 0 1 1431.2777 687.3353)" class="st16 st13 st36">V</text>
		<text transform="matrix(1 0 0 1 1431.2777 741.0267)" class="st16 st13 st36">E</text>
		<text transform="matrix(1 0 0 1 1431.2777 794.7132)" class="st16 st13 st36">N</text>
		<text transform="matrix(1 0 0 1 1431.2777 848.4056)" class="st16 st13 st36">U</text>
		<text transform="matrix(1 0 0 1 1431.2777 902.0931)" class="st16 st13 st36">E</text>
	</g>
	<text transform="matrix(1 0 0 1 988.2739 1043.4379)"><tspan x="0" y="0" class="st20 st13 st36 st22">W</tspan><tspan x="41.79" y="0" class="st20 st13 st36 st23">A</tspan><tspan x="75.08" y="0" class="st20 st13 st36 st23">L</tspan><tspan x="103.71" y="0" class="st20 st13 st36 st19">K</tspan><tspan x="135.43" y="0" class="st20 st13 st36 st22">W</tspan><tspan x="177.17" y="0" class="st20 st13 st36 st22">A</tspan><tspan x="205.14" y="0" class="st20 st13 st36">Y</tspan></text>
</g>
<g id="Saal_1" class="st31">
	<polygon class="st35" points="1747.9,670.23 1747.9,697.44 1754.56,697.44 1911.74,697.44 1970.56,697.44 1970.56,686.95 
		1969.71,686.95 1969.71,686.1 1966.73,686.1 1966.73,631.76 1969.71,631.76 1969.71,630.91 1970.56,630.91 1970.56,620.06 
		1921.84,620.06 1921.84,529.92 1747.9,529.92 1747.9,558.12 1749.03,558.12 1749.03,559.25 1751.58,559.25 1751.58,630 
		1751.58,669.1 1749.03,669.1 1749.03,670.23 	"/>
	<polygon class="st35" points="1741.38,529.92 1747.9,529.92 1921.84,529.92 1921.84,620.06 2058.58,620.06 2058.58,569.03 
		2056.87,569.03 2056.87,567.9 2053.47,567.9 2053.47,414.97 2056.87,414.97 2056.87,413.84 2058.58,413.84 2058.58,363.1 
		1997.35,363.1 1997.35,366.21 1996.07,366.21 1996.07,368.77 1803.88,368.77 1803.88,366.21 1802.61,366.21 1802.61,363.1 
		1741.38,363.1 1741.38,405.33 1746.2,405.33 1746.2,406.47 1748.75,406.47 1748.75,428.01 1748.75,487.25 1741.38,487.25 	"/>
	<text transform="matrix(1 0 0 1 1815.7946 449.3105)" class="st33"><tspan x="0" y="0" class="st12 st13 st36 st19">S</tspan><tspan x="26.71" y="0" class="st12 st13 st36 st23">AAL</tspan><tspan x="121.96" y="0" class="st12 st13 st36"> </tspan></text>
	<text transform="matrix(1 0 0 1 1877.2194 516.4238)" class="st32 st13 st36">&amp;</text>
	<text transform="matrix(1 0 0 1 1814.6705 570.1113)" class="st33"><tspan x="0" y="0" class="st12 st13 st36 st23">F</tspan><tspan x="27.96" y="0" class="st12 st13 st36">O</tspan><tspan x="64.43" y="0" class="st12 st13 st36 st23">Y</tspan><tspan x="98.52" y="0" class="st12 st13 st36 st23">E</tspan><tspan x="128.63" y="0" class="st12 st13 st36">R</tspan></text>
	<text transform="matrix(1 0 0 1 1951.2233 449.3105)" class="st32 st13 st14">1</text>
	<line class="st34" x1="1483.86" y1="1054.51" x2="2025.99" y2="1054.51"/>
	<line class="st34" x1="2025.99" y1="1054.51" x2="2025.99" y2="657.48"/>
	<line class="st34" x1="2025.99" y1="657.48" x2="2000.23" y2="657.48"/>
	<polyline class="st37" points="2000.23,630.19 1980.32,658.42 2000.23,684.76 2000.23,630.19 	"/>
	<text transform="matrix(1 0 0 1 1610.0563 1102.9072)" class="st33"><tspan x="0" y="0" class="st20 st13 st36 st22">W</tspan><tspan x="41.79" y="0" class="st20 st13 st36 st23">A</tspan><tspan x="75.08" y="0" class="st20 st13 st36 st23">L</tspan><tspan x="103.71" y="0" class="st20 st13 st36 st19">K</tspan><tspan x="135.43" y="0" class="st20 st13 st36 st22">W</tspan><tspan x="177.17" y="0" class="st20 st13 st36 st22">A</tspan><tspan x="205.14" y="0" class="st20 st13 st36">Y</tspan></text>
	<text transform="matrix(1 0 0 1 1964.2721 767.3467)" class="st41 st13 st36">V</text>
	<text transform="matrix(1 0 0 1 1964.2721 821.0381)" class="st41 st13 st36">E</text>
	<text transform="matrix(1 0 0 1 1964.2721 874.7246)" class="st41 st13 st36">N</text>
	<text transform="matrix(1 0 0 1 1964.2721 928.417)" class="st41 st13 st36">U</text>
	<text transform="matrix(1 0 0 1 1964.2721 982.1045)" class="st41 st13 st36">E</text>
	<line class="st34" x1="1483.86" y1="987.66" x2="1483.86" y2="1054.51"/>
	<line class="st34" x1="760.15" y1="987.66" x2="1483.86" y2="987.66"/>
	<line class="st34" x1="760.15" y1="987.66" x2="730.66" y2="979.61"/>
	<rect x="1185.19" y="855.3" class="st32" width="117.76" height="86.12"/>
	<text transform="matrix(1 0 0 1 1198.1178 893.1745)" class="st33"><tspan x="0" y="0" class="st16 st13 st30">Z</tspan><tspan x="20.77" y="0" class="st16 st13 st30 st19">OL</tspan><tspan x="71.81" y="0" class="st16 st13 st30">A </tspan></text>
	<text transform="matrix(1 0 0 1 1198.1178 933.4411)" class="st33"><tspan x="0" y="0" class="st16 st13 st30 st19">P</tspan><tspan x="22.82" y="0" class="st16 st13 st30 st19">I</tspan><tspan x="35.13" y="0" class="st16 st13 st30 st19">Z</tspan><tspan x="57.08" y="0" class="st16 st13 st30 st19">Z</tspan><tspan x="79.22" y="0" class="st16 st13 st30">A</tspan></text>
	<path class="st34" d="M452.88,562.93c0,2.35,0.11,4.69,0.34,7.03c0.22,2.34,0.56,4.66,1,6.96c0.44,2.3,1,4.58,1.66,6.82
		c0.66,2.25,1.43,4.45,2.3,6.62"/>
	<line class="st34" x1="458.19" y1="590.37" x2="591.23" y2="900.32"/>
	<path class="st34" d="M591.23,900.32c2.29,3.97,4.82,7.77,7.58,11.39c2.76,3.62,5.74,7.05,8.92,10.26
		c3.19,3.22,6.56,6.21,10.12,8.97c3.56,2.76,7.27,5.26,11.14,7.52"/>
	<line class="st34" x1="628.99" y1="938.47" x2="710.15" y2="974.71"/>
	<polyline class="st37" points="691.22,995.98 718.54,979.33 711.1,947.15 691.22,995.98 	"/>
	<rect x="364.76" y="303.53" class="st32" width="302" height="89.48"/>
	<text transform="matrix(1 0 0 1 379.6696 337.7568)" class="st33"><tspan x="0" y="0" class="st16 st17 st28 st29">N</tspan><tspan x="23.03" y="0" class="st16 st17 st28 st29">A</tspan><tspan x="44.38" y="0" class="st16 st17 st28 st29">L</tspan><tspan x="61.86" y="0" class="st16 st17 st28 st29">E</tspan><tspan x="80.95" y="0" class="st16 st17 st28">P</tspan><tspan x="98.37" y="0" class="st16 st17 st28 st29">A</tspan><tspan x="119.73" y="0" class="st16 st17 st28 st29">S</tspan><tspan x="136.91" y="0" class="st16 st17 st28 st29">TR</tspan><tspan x="174.79" y="0" class="st16 st17 st28 st29">.</tspan><tspan x="182.6" y="0" class="st16 st17 st28"> </tspan></text>
	<text transform="matrix(1 0 0 1 571.2496 337.7568)" class="st33"><tspan x="0" y="0" class="st16 st17 st30 st19">1</tspan><tspan x="11.54" y="0" class="st16 st17 st30">8</tspan></text>
	<line class="st34" x1="452.88" y1="226.95" x2="452.88" y2="303.53"/>
	<line class="st34" x1="452.88" y1="348.27" x2="452.88" y2="562.93"/>
</g>
</svg>
